<svg xmlns="http://www.w3.org/2000/svg" version="1.1" xmlns:xlink="http://www.w3.org/1999/xlink" xmlns:svgjs="http://svgjs.dev/svgjs" width="1500" height="329" viewBox="0 0 1500 329"><g transform="matrix(1,0,0,1,-0.9090909090909918,0.10987469237085179)"><svg viewBox="0 0 396 87" data-background-color="#ffffff" preserveAspectRatio="xMidYMid meet" height="329" width="1500" xmlns="http://www.w3.org/2000/svg" xmlns:xlink="http://www.w3.org/1999/xlink"><g id="tight-bounds" transform="matrix(1,0,0,1,0.2400000000000091,-0.029055009836667978)"><svg viewBox="0 0 395.52 87.05811001967335" height="87.05811001967335" width="395.52"><g><svg viewBox="0 0 531.6245277483146 117.01614741573033" height="87.05811001967335" width="395.52"><g transform="matrix(1,0,0,1,136.1045277483146,42.3366879400749)"><svg viewBox="0 0 395.52 32.342771535580525" height="32.342771535580525" width="395.52"><g id="textblocktransform"><svg viewBox="0 0 395.52 32.342771535580525" height="32.342771535580525" width="395.52" id="textblock"><g><svg viewBox="0 0 395.52 32.342771535580525" height="32.342771535580525" width="395.52"><g transform="matrix(1,0,0,1,0,0)"><svg width="395.52" viewBox="-8.3 -32 400.47 32.75" height="32.342771535580525" data-palette-color="#202046"><path d="M12.9-19.4L12.9-19.4-8.3-21.65 13.25-21.65Q13-20.65 12.9-19.4ZM-6.9-26.45L14.6-26.45 13.85-24.25-6.9-26.45ZM-7.85-16.85L12.9-16.85Q13-15.5 13.3-14.6L13.3-14.6-7.85-16.85ZM19.9-9.8L19.9-9.8-6.55-12.05 15-12.05Q16.65-10.45 19.9-9.8ZM-3.15-31.25L18.35-31.25Q17.2-30.5 16.15-29.2L16.15-29.2-3.15-31.25ZM10.55-5.05L-7.4-7.25 11.3-7.25 10.55-5.05ZM8.95-0.2L-8.25-2.4 9.7-2.4 8.95-0.2ZM10.65-0.55L13.45-8.8Q17.65-7.65 21.13-7.65 24.6-7.65 26.8-7.95L26.8-7.95 27.2-10.45 23.05-10.85Q18.3-11.3 16.32-13 14.35-14.7 14.35-17.8L14.35-17.8Q14.35-19.15 14.65-20.8L14.65-20.8Q15.8-27.2 18.85-29.6 21.9-32 28.23-32 34.55-32 39.4-30.75L39.4-30.75 36.8-22.75Q32.45-23.5 29.83-23.5 27.2-23.5 25.3-23.25L25.3-23.25 24.9-20.8 28.25-20.45Q33.35-19.9 35.5-18.03 37.65-16.15 37.65-13L37.65-13Q37.65-9.8 36.3-6.4L36.3-6.4Q35.55-4.65 34.73-3.48 33.9-2.3 32.63-1.48 31.35-0.65 30.3-0.23 29.25 0.2 27.6 0.4L27.6 0.4Q25.3 0.75 21.9 0.75L21.9 0.75Q15.7 0.75 10.65-0.55L10.65-0.55ZM71.8 0L62.65 0 60.3-8.65 60-8.65 58.5 0 50.1 0 54.7-26.45 63.15-26.45 61.7-18.35 61.95-18.35 67.1-26.45 76.25-26.45 67.85-13.5 71.8 0ZM48.85-2.4L48.45-0.15 27.25-2.4 48.85-2.4ZM50.55-12.05L50.15-9.8 28.95-12.05 50.55-12.05ZM51.4-16.85L51-14.6 29.8-16.85 51.4-16.85ZM52.25-21.65L51.85-19.4 30.65-21.65 52.25-21.65ZM53.05-26.45L52.7-24.2 31.5-26.45 53.05-26.45ZM49.7-7.25L49.3-5 28.1-7.25 49.7-7.25ZM93.7 0L84.95 0 89.55-26.45 98.34-26.45 93.7 0ZM83.7-2.4L83.3-0.15 62.1-2.4 83.7-2.4ZM85.4-12.05L85-9.8 63.8-12.05 85.4-12.05ZM86.25-16.85L85.84-14.6 64.65-16.85 86.25-16.85ZM87.09-21.65L86.7-19.4 65.5-21.65 87.09-21.65ZM87.9-26.45L87.55-24.2 66.34-26.45 87.9-26.45ZM84.55-7.25L84.15-5 62.95-7.25 84.55-7.25ZM126.94-7.35L125.64 0 109.39 0 113.99-26.45 122.79-26.45 119.44-7.35 126.94-7.35ZM108.14-2.4L107.74-0.15 86.54-2.4 108.14-2.4ZM109.84-12.05L109.44-9.8 88.24-12.05 109.84-12.05ZM110.69-16.85L110.29-14.6 89.09-16.85 110.69-16.85ZM111.54-21.65L111.14-19.4 89.94-21.65 111.54-21.65ZM112.34-26.45L111.99-24.2 90.79-26.45 112.34-26.45ZM108.99-7.25L108.59-5 87.39-7.25 108.99-7.25ZM155.29-7.35L153.99 0 137.74 0 142.34-26.45 151.14-26.45 147.79-7.35 155.29-7.35ZM136.49-2.4L136.09-0.15 114.89-2.4 136.49-2.4ZM138.19-12.05L137.79-9.8 116.59-12.05 138.19-12.05ZM139.04-16.85L138.64-14.6 117.44-16.85 139.04-16.85ZM139.89-21.65L139.49-19.4 118.29-21.65 139.89-21.65ZM140.69-26.45L140.34-24.2 119.14-26.45 140.69-26.45ZM137.34-7.25L136.94-5 115.74-7.25 137.34-7.25ZM174.99-2.4L174.49-0.15 153.39-2.4 174.99-2.4ZM176.14-7.25L175.59-5 154.54-7.25 176.14-7.25ZM177.24-12.05L176.74-9.8 155.69-12.05 177.24-12.05ZM178.39-16.85L177.84-14.6 156.84-16.85 178.39-16.85ZM179.49-21.65L178.99-19.4 157.99-21.65 179.49-21.65ZM180.64-26.45L180.09-24.2 159.14-26.45 180.64-26.45ZM181.74-31.25L181.24-29 160.29-31.25 181.74-31.25ZM189.14-15.15L185.89 0 175.99 0 183.29-31.25 195.69-31.25 196.59-15.35 196.94-15.35 203.44-31.25 215.84-31.25 212.14 0 202.19 0 204.29-15.15 203.94-15.15 197.69 0 190.44 0 189.39-15.15 189.14-15.15ZM245.83-15.55L244.98-10.75 237.53-10.75 236.93-7.35 246.18-7.35 244.88 0 227.23 0 231.83-26.45 249.43-26.45 247.08-18.95 238.93-18.95 238.33-15.55 245.83-15.55ZM225.98-2.4L225.58-0.15 204.38-2.4 225.98-2.4ZM227.68-12.05L227.28-9.8 206.08-12.05 227.68-12.05ZM228.53-16.85L228.13-14.6 206.93-16.85 228.53-16.85ZM229.38-21.65L228.98-19.4 207.78-21.65 229.38-21.65ZM230.18-26.45L229.83-24.2 208.63-26.45 230.18-26.45ZM226.83-7.25L226.43-5 205.23-7.25 226.83-7.25ZM282.33 0L275.53 0 270.38-9.9 270.18-9.9 268.43 0 260.03 0 264.63-26.45 271.43-26.45 276.63-16.6 276.93-16.6 278.63-26.45 286.98-26.45 282.33 0ZM258.78-2.4L258.38-0.15 237.18-2.4 258.78-2.4ZM260.48-12.05L260.08-9.8 238.88-12.05 260.48-12.05ZM261.33-16.85L260.93-14.6 239.73-16.85 261.33-16.85ZM262.18-21.65L261.78-19.4 240.58-21.65 262.18-21.65ZM262.98-26.45L262.63-24.2 241.43-26.45 262.98-26.45ZM259.63-7.25L259.23-5 238.03-7.25 259.63-7.25ZM320.98-26.45L319.63-18.95 314.23-18.95 310.93 0 302.13 0 305.43-18.95 299.88-18.95 301.23-26.45 320.98-26.45ZM301.03-2.4L300.63-0.15 279.43-2.4 301.03-2.4ZM302.73-12.05L302.33-9.8 281.13-12.05 302.73-12.05ZM303.58-16.85L303.18-14.6 281.98-16.85 303.58-16.85ZM298.78-21.65L298.38-19.4 277.18-21.65 298.78-21.65ZM299.58-26.45L299.23-24.2 278.03-26.45 299.58-26.45ZM301.88-7.25L301.48-5 280.28-7.25 301.88-7.25ZM344.88-26.95L344.88-26.95Q350.28-26.95 352.57-24.88 354.88-22.8 354.88-18.4L354.88-18.4Q354.88-16.25 354.32-13.2L354.32-13.2Q353.07-6 349.93-2.7 346.78 0.6 340.03 0.6L340.03 0.6Q334.73 0.6 332.48-1.48 330.23-3.55 330.23-7.9L330.23-7.9Q330.23-10.15 330.78-13.2L330.78-13.2Q332.03-20.4 335.13-23.68 338.23-26.95 344.88-26.95ZM338.53-7L341.48-7Q342.93-7 343.65-7.35 344.38-7.7 344.63-8.9L344.63-8.9 346.53-19.35 343.48-19.35Q342.07-19.35 341.3-19 340.53-18.65 340.38-17.5L340.38-17.5 338.53-7ZM309.07-12.05L329.03-12.05Q328.82-10.5 328.78-9.95L328.78-9.95 309.07-12.05ZM309.98-16.85L329.98-16.85 329.53-14.75 309.98-16.85ZM309.28-7.25L328.73-7.25Q328.73-6.45 328.93-5.15L328.93-5.15 309.28-7.25ZM311.98-21.65L331.73-21.65Q331.13-20.35 330.88-19.65L330.88-19.65 311.98-21.65ZM313.63-2.4L329.78-2.4Q330.38-1.2 331.07-0.55L331.07-0.55 313.63-2.4ZM318.68-26.45L336.07-26.45Q334.88-25.75 334.03-24.8L334.03-24.8 318.68-26.45ZM372.17-26.45L384.87-26.45Q392.17-26.45 392.17-19.85L392.17-19.85Q392.17-16.85 390.97-13.63 389.77-10.4 386.92-8.8L386.92-8.8 389.77 0 380.42 0 378.52-7.7 377.32-7.7 375.97 0 367.57 0 372.17-26.45ZM382.72-16.05L383.02-17.8Q383.02-17.85 383.07-18.3L383.07-18.3Q383.07-19.15 380.42-19.15L380.42-19.15 379.32-19.15 378.52-14.55 380.12-14.55Q382.42-14.55 382.72-16.05L382.72-16.05ZM366.32-2.4L365.92-0.15 344.72-2.4 366.32-2.4ZM368.02-12.05L367.62-9.8 346.42-12.05 368.02-12.05ZM368.87-16.85L368.47-14.6 347.27-16.85 368.87-16.85ZM369.72-21.65L369.32-19.4 348.12-21.65 369.72-21.65ZM370.52-26.45L370.17-24.2 348.97-26.45 370.52-26.45ZM367.17-7.25L366.77-5 345.57-7.25 367.17-7.25Z" opacity="1" transform="matrix(1,0,0,1,0,0)" fill="#202046" class="wordmark-text-0" data-fill-palette-color="primary" id="text-0"></path></svg></g></svg></g></svg></g></svg></g><g><svg viewBox="0 0 117.01614741573033 117.01614741573033" height="117.01614741573033" width="117.01614741573033"><g><svg viewBox="0 0 117.01614741573033 117.01614741573033" height="117.01614741573033" width="117.01614741573033"><g transform="matrix(1,0,0,1,30.927103259202624,37.89216421573521)"><svg viewBox="0 0 55.16194089732508 41.23181898425991" height="41.23181898425991" width="55.16194089732508"><g><svg xmlns="http://www.w3.org/2000/svg" xmlns:xlink="http://www.w3.org/1999/xlink" version="1.1" x="0" y="0" viewBox="1.1 13.399999999999999 97.80000000000001 73.10242952049867" enable-background="new 0 0 100 100" xml:space="preserve" height="41.23181898425991" width="55.16194089732508" class="icon-cg-0" data-fill-palette-color="accent" id="cg-0"><path d="M1.1 79.9v-4.1h5.4 0.3V33.2c0-3.4 2.7-6.1 6.1-6.1h23.7c-0.5 2-0.8 4.1-0.8 6.3 0 0.7 0 1.3 0.1 2H15v40.4h21.2v0.4c0 1.3 1 2.3 2.3 2.3h11.6c1.3 0 2.3-1 2.3-2.3v-0.4h21.2V58.5H79c1 0 2-0.1 3-0.2v17.4h0.3 5.4v4.1c0 3.7-3 6.7-6.7 6.7h-6.4H14.2 7.8C4.1 86.6 1.1 83.6 1.1 79.9zM40.8 33.4c0-11 9-20 20-20h18.1c11 0 20 9 20 20 0 11-9 20-20 20H65.4l-9.2 9.2c-0.6 0.6-1.7 0.2-1.7-0.7v-9.5C46.5 49.7 40.8 42.3 40.8 33.4zM52.7 33.5c0 1.1 0.2 2.1 0.6 3.1 0.4 1 1 1.9 1.8 2.7 0.8 0.8 1.7 1.4 2.7 1.8 1 0.4 2 0.6 3.1 0.6 1.1 0 2.1-0.2 3.1-0.6 1-0.4 1.9-1 2.7-1.8l0.6-0.6-2.6-2.6-0.6 0.6c-0.9 0.9-2 1.3-3.2 1.3-1.2 0-2.3-0.5-3.2-1.3-0.9-0.9-1.3-2-1.3-3.2s0.5-2.3 1.3-3.2c0.9-0.9 2-1.3 3.2-1.3 1.2 0 2.3 0.5 3.2 1.3l3.2 3.2 5.8 5.8c0.8 0.8 1.7 1.4 2.7 1.8 1 0.4 2 0.6 3.1 0.6 1.1 0 2.1-0.2 3.1-0.6 1-0.4 1.9-1 2.7-1.8 0.8-0.8 1.4-1.7 1.8-2.7 0.4-1 0.6-2 0.6-3.1 0-1.1-0.2-2.1-0.6-3.1-0.4-1-1-1.9-1.8-2.7-0.8-0.8-1.7-1.4-2.7-1.8-1-0.4-2-0.6-3.1-0.6-1.1 0-2.1 0.2-3.1 0.6-1 0.4-1.9 1-2.7 1.8l-0.7 0.7L75 31l0.7-0.7c0.9-0.9 2-1.3 3.2-1.3 1.2 0 2.3 0.5 3.2 1.3 0.9 0.9 1.3 2 1.3 3.2s-0.5 2.3-1.3 3.2c-0.9 0.9-2 1.3-3.2 1.3-1.2 0-2.3-0.5-3.2-1.3l-1.3-1.3-7.7-7.7c-0.8-0.8-1.7-1.4-2.7-1.8-1-0.4-2-0.6-3.1-0.6-1.1 0-2.1 0.2-3.1 0.6-1 0.4-1.9 1-2.7 1.8-0.8 0.8-1.4 1.7-1.8 2.7C52.9 31.4 52.7 32.4 52.7 33.5z" fill="#fe633d" data-fill-palette-color="accent"></path></svg></g></svg></g><g><path d="M5.97 40.807v0l-3.067 5.638 2.477-6.001c0.165 0.126 0.362 0.247 0.59 0.363zM1.736 45.507l2.469-5.983 0.529 0.457zM4.294 46.867l2.382-5.769c0.262 0.086 0.488 0.136 0.678 0.15v0zM9.442 39.957v0l-3.66 7.1 2.473-5.992c0.425-0.187 0.821-0.556 1.187-1.108zM0.831 43.905l2.47-5.983c0.047 0.273 0.151 0.555 0.313 0.847v0zM9.696 43.106l-2.676 4.745 2.151-5.212zM10.859 44.108l-2.588 4.531 2.063-4.998zM10.962 43.596l-1.982-1.731c0.539-0.691 0.941-1.358 1.207-2.003 0.266-0.644 0.455-1.182 0.569-1.614v0l-0.651-0.399-0.591 1.115c-0.45 0.844-0.905 1.384-1.365 1.622-0.467 0.235-0.988 0.234-1.564-0.004v0c-0.254-0.105-0.521-0.248-0.802-0.429v0c-1.102-0.701-1.759-1.429-1.969-2.183-0.213-0.748-0.077-1.71 0.408-2.886 0.483-1.171 1.028-2.156 1.634-2.957v0l1.922 1.641c-0.469 0.749-0.804 1.368-1.006 1.857-0.199 0.483-0.347 0.911-0.444 1.285v0l0.632 0.391 0.477-0.89c0.496-0.904 1-1.483 1.51-1.736 0.513-0.259 1.064-0.268 1.652-0.025v0c0.588 0.243 1.146 0.622 1.673 1.136v0c0.272 0.272 0.484 0.53 0.637 0.775 0.155 0.238 0.261 0.51 0.316 0.815 0.058 0.299 0.084 0.56 0.079 0.783-0.001 0.231-0.046 0.507-0.134 0.825v0c-0.114 0.453-0.302 0.995-0.563 1.627v0c-0.476 1.152-1.024 2.147-1.645 2.985z" fill="#fe633d" data-fill-palette-color="accent"></path><path d="M20.583 26.867l-1.68 2.181-2.498-1.023-0.055 0.072 1.786 1.947-1.54 1.998-5.465-5.949 1.552-2.014 1.663 1.827 0.049-0.064-0.982-2.711 1.68-2.181 1.544 4.386zM15.79 31.903l0.468 0.513-4.437 4.638zM13.802 29.724l0.46 0.507-4.429 4.644zM12.809 28.642l0.474 0.504-4.443 4.647zM11.822 27.552l0.467 0.512-4.436 4.639zM10.83 26.483l0.466 0.499-4.428 4.644zM14.795 30.806l0.46 0.507-4.429 4.645z" fill="#fe633d" data-fill-palette-color="accent"></path><path d="M25.979 21.172l-1.986 1.729-4.187-6.908 2.001-1.742zM23.23 22.606l0.357 0.595-5.262 3.674zM21.709 20.079l0.351 0.587-5.256 3.682zM20.949 18.822l0.365 0.588-5.27 3.681zM20.196 17.559l0.357 0.594-5.262 3.675zM19.434 16.316l0.359 0.581-5.256 3.682zM22.47 21.335l0.351 0.587-5.256 3.682z" fill="#fe633d" data-fill-palette-color="accent"></path><path d="M34.236 12.908l0.778 2.106-4.216 2.466-2.83-7.566 2.291-1.34 2.034 5.47zM30.103 17.048l0.24 0.651-5.854 2.632zM29.079 14.282l0.236 0.642-5.85 2.64zM28.565 12.906l0.25 0.646-5.863 2.636zM28.06 11.525l0.241 0.65-5.854 2.632zM27.543 10.162l0.245 0.637-5.85 2.64zM29.593 15.658l0.235 0.642-5.849 2.641z" fill="#fe633d" data-fill-palette-color="accent"></path><path d="M43.73 9.043l0.35 2.218-4.618 1.592-1.292-7.974 2.509-0.865 0.923 5.763zM38.865 12.293l0.109 0.685-6.257 1.434zM38.403 9.38l0.106 0.676-6.254 1.443zM38.169 7.93l0.118 0.682-6.266 1.437zM37.945 6.476l0.108 0.686-6.256 1.433zM37.704 5.039l0.115 0.673-6.253 1.443zM38.637 10.83l0.106 0.676-6.253 1.443z" fill="#fe633d" data-fill-palette-color="accent"></path><path d="M52.999 8.779l-0.165 0.679-6.336-0.822zM53.373 7.329l-0.176 0.67-6.325-0.812zM53.736 5.889l-0.165 0.67-6.326-0.812zM54.109 4.45l-0.175 0.68-6.306-0.822zM54.473 3.01l-0.166 0.68-6.305-0.821zM54.856 1.581l-0.186 0.67-6.285-0.812zM55.219 0.141l-0.165 0.67-6.296-0.811zM57.334 5.033l-1.075 4.541-2.974-0.065 2.396-9.357 3.738 0.081 0.167 4.789 0.1 0.002 2.064-4.74 3.728 0.082-1.321 9.381-2.994-0.066 0.733-4.548-0.101-0.002-1.979 4.521-2.19-0.048-0.212-4.569z" fill="#fe633d" data-fill-palette-color="accent"></path><path d="M76.286 7.515l-0.675 1.307-2.142-0.658-0.474 0.927 2.661 0.817-1.023 1.999-5.073-1.557 3.651-7.206 5.074 1.557-1.343 1.943-2.345-0.72-0.473 0.927zM69.407 9.546l-0.316 0.618-5.901-2.526zM70.749 6.92l-0.313 0.608-5.903-2.516zM71.414 5.61l-0.306 0.621-5.91-2.529zM72.088 4.303l-0.315 0.618-5.901-2.526zM72.741 3l-0.304 0.611-5.903-2.516zM70.084 8.229l-0.313 0.609-5.903-2.517z" fill="#fe633d" data-fill-palette-color="accent"></path><path d="M85.706 17.397l-1.766-1.042 0.184-3.358-0.052-0.03-1.976 2.3-2.172-1.282 5.23-6.156 1.766 1.042-0.156 3.35 0.078 0.046 1.948-2.293 2.164 1.277zM79.962 13.168l-0.451 0.527-5.149-3.831zM81.88 10.927l-0.446 0.518-5.155-3.822zM82.832 9.808l-0.443 0.532-5.158-3.836zM83.792 8.694l-0.451 0.527-5.15-3.831zM84.73 7.579l-0.437 0.524-5.155-3.823zM80.928 12.046l-0.446 0.518-5.155-3.823z" fill="#fe633d" data-fill-palette-color="accent"></path><path d="M101 19.803l-1.863 1.33-1.169-1.134-4.68 3.413-1.905-1.847 4.688-3.405-1.205-1.169 1.863-1.329zM91.648 20.815l-0.562 0.407-4.106-4.933zM94.038 19.087l-0.555 0.399-4.114-4.926zM95.226 18.222l-0.563 0.407-4.106-4.933zM95.201 16.183l-0.562 0.407-4.113-4.941zM96.375 15.319l-0.548 0.406-4.113-4.926zM92.843 19.944l-0.555 0.399-4.114-4.926z" fill="#fe633d" data-fill-palette-color="accent"></path><path d="M107.197 27.8v0c0.597 0.906 0.849 1.667 0.756 2.281-0.093 0.615-0.508 1.165-1.246 1.652v0c-0.358 0.236-0.826 0.476-1.404 0.72v0c-1.339 0.585-2.459 0.798-3.359 0.636-0.904-0.167-1.728-0.815-2.473-1.945v0c-0.586-0.89-0.829-1.636-0.729-2.24 0.1-0.603 0.516-1.147 1.249-1.629v0c0.375-0.247 0.846-0.493 1.415-0.74v0c1.345-0.589 2.463-0.804 3.354-0.644 0.891 0.159 1.703 0.795 2.437 1.909zM101.136 29.506l0.492 0.746c0.158 0.241 0.306 0.404 0.443 0.491 0.139 0.077 0.324 0.071 0.555-0.017v0l2.942-1.252-0.509-0.772c-0.151-0.229-0.302-0.391-0.451-0.485-0.141-0.092-0.316-0.084-0.527 0.023v0zM97.527 21.268l3.306 5.019c-0.28 0.136-0.47 0.23-0.573 0.281v0zM98.885 20.698l3.311 5.028-0.6 0.239zM96.351 22.114l3.223 4.894c-0.134 0.088-0.299 0.221-0.495 0.398v0zM100.425 20.406l3.267 4.96c-0.285 0.043-0.498 0.084-0.642 0.122v0zM95.853 24.007l2.676 4.062c-0.135 0.233-0.22 0.446-0.255 0.637v0zM102.736 21.302l2.881 4.373c-0.25-0.124-0.502-0.207-0.754-0.249v0z" fill="#fe633d" data-fill-palette-color="accent"></path><path d="M112.2 37.894l1.231 3.626c0.47 1.383 0.08 2.287-1.17 2.711v0c-0.571 0.194-1.202 0.284-1.893 0.271-0.687-0.022-1.275-0.253-1.764-0.695v0l-2.235 1.671-0.908-2.674 2.017-1.279-0.116-0.343-2.331 0.356-0.811-2.388zM110.262 41.906l0.523-0.082c0.013-0.004 0.062-0.014 0.15-0.03v0c0.165-0.056 0.161-0.338-0.011-0.845v0l-0.104-0.305-1.391 0.218 0.155 0.457c0.147 0.431 0.372 0.627 0.678 0.587zM104.782 38.555l-0.686 0.106-1.405-6.263zM107.697 38.107l-0.676 0.102-1.415-6.26zM109.149 37.879l-0.683 0.115-1.408-6.272zM110.603 37.661l-0.686 0.106-1.405-6.263zM112.041 37.427l-0.673 0.112-1.414-6.259zM106.246 38.334l-0.676 0.102-1.415-6.259z" fill="#fe633d" data-fill-palette-color="accent"></path><path d="M9.492 76.128v0l-1.876-6.306 2.559 6.142c-0.206 0.028-0.434 0.083-0.683 0.164zM9.155 69.649l2.551 6.123-0.719 0.05zM6.306 70.52l2.463 5.91c-0.246 0.124-0.444 0.25-0.594 0.378v0zM7.596 79.26v0l-2.499-7.8 2.555 6.132c-0.172 0.442-0.19 0.998-0.056 1.668zM10.964 70.148l2.551 6.123c-0.232-0.157-0.514-0.283-0.844-0.378v0zM5.132 77.161l-1.508-5.371 2.218 5.326zM3.56 77.283l-1.41-5.162 2.13 5.112zM3.863 77.722l2.68-0.18c0.116 0.888 0.31 1.66 0.583 2.316 0.276 0.662 0.528 1.188 0.756 1.579v0l0.765-0.177-0.383-1.234c-0.287-0.933-0.348-1.655-0.184-2.166 0.164-0.511 0.54-0.889 1.128-1.134v0c0.26-0.108 0.557-0.196 0.892-0.263v0c1.309-0.291 2.309-0.243 2.999 0.144 0.7 0.391 1.3 1.186 1.8 2.386 0.5 1.2 0.824 2.31 0.973 3.329v0l-2.591 0.209c-0.2-0.882-0.405-1.573-0.614-2.075-0.206-0.495-0.41-0.914-0.611-1.258v0l-0.743 0.178 0.306 0.995c0.297 1.009 0.351 1.792 0.162 2.349-0.182 0.555-0.574 0.958-1.174 1.208v0c-0.606 0.253-1.287 0.387-2.041 0.404v0c-0.387-0.006-0.724-0.039-1.012-0.101-0.29-0.068-0.565-0.189-0.826-0.364-0.255-0.177-0.464-0.347-0.627-0.512-0.163-0.164-0.329-0.397-0.497-0.696v0c-0.251-0.411-0.51-0.938-0.779-1.581v0c-0.49-1.175-0.81-2.294-0.962-3.356z" fill="#fe633d" data-fill-palette-color="accent"></path><path d="M14.394 96.538l-1.732-2.23 1.659-2.205-0.055-0.072-2.387 1.269-1.591-2.048 7.315-3.887 1.597 2.056-2.248 1.186 0.049 0.063 2.951-0.281 1.732 2.231-4.75 0.406zM10.641 90.494l-0.627 0.322-3.46-5.584zM13.312 89.082l-0.622 0.33-3.466-5.592zM14.639 88.382l-0.622 0.33-3.466-5.592zM15.966 87.682l-0.622 0.331-3.466-5.593zM17.295 86.968l-0.616 0.338-3.466-5.592zM11.976 89.788l-0.627 0.322-3.46-5.584z" fill="#fe633d" data-fill-palette-color="accent"></path><path d="M20.829 103.3l-2.044-1.769 6.412-5.244 2.052 1.775zM18.983 100.718l-0.553 0.439-4.486-4.799zM21.325 98.811l-0.545 0.445-4.494-4.806zM22.489 97.865l-0.545 0.445-4.494-4.806zM23.653 96.918l-0.545 0.446-4.494-4.806zM24.817 95.958l-0.538 0.452-4.494-4.806zM20.154 99.765l-0.553 0.438-4.486-4.799z" fill="#fe633d" data-fill-palette-color="accent"></path><path d="M32.575 108.528l-1.491 1.761-4.334-2.525 5.332-6.338 2.345 1.366-3.859 4.568zM26.795 106.929l-0.462 0.534-5.296-3.887zM28.744 104.622l-0.454 0.538-5.304-3.892zM29.713 103.477l-0.453 0.538-5.305-3.892zM30.682 102.332l-0.453 0.538-5.304-3.892zM31.648 101.173l-0.444 0.543-5.305-3.892zM27.769 105.776l-0.462 0.533-5.296-3.887z" fill="#fe633d" data-fill-palette-color="accent"></path><path d="M42.664 112.642l-1.119 2.017-4.743-1.631 3.994-7.257 2.566 0.883-2.894 5.233zM36.683 112.2l-0.349 0.614-5.952-2.781zM38.145 109.557l-0.34 0.617-5.962-2.784zM38.872 108.245l-0.339 0.617-5.962-2.784zM39.6 106.933l-0.34 0.616-5.962-2.783zM40.321 105.608l-0.33 0.62-5.962-2.784zM37.414 110.879l-0.349 0.613-5.952-2.78z" fill="#fe633d" data-fill-palette-color="accent"></path><path d="M52.843 116.05l-0.138 0.697-6.525-0.566zM53.175 114.556l-0.157 0.697-6.505-0.566zM53.478 113.062l-0.138 0.697-6.505-0.566zM53.81 111.578l-0.157 0.697-6.495-0.566zM54.113 110.095l-0.137 0.696-6.485-0.566zM54.445 108.6l-0.157 0.697-6.475-0.567zM54.748 107.117l-0.137 0.696-6.475-0.567zM57.126 112.036l-0.903 4.692-3.054 0.06 2.061-9.681 3.829-0.075 0.367 4.898 0.111-0.002 1.903-4.943 3.829-0.075-0.957 9.659-3.064 0.06 0.551-4.685-0.1 0.002-1.838 4.71-2.241 0.044-0.413-4.666z" fill="#fe633d" data-fill-palette-color="accent"></path><path d="M75.835 109.41l0.181 1.49-2.201 0.672 0.132 1.052 2.73-0.833 0.279 2.29-5.21 1.59-1.027-8.219 5.191-1.585-0.018 2.423-2.403 0.733 0.135 1.062zM71.163 115.071l0.078 0.701-6.451 1.244zM70.795 112.073l0.087 0.699-6.46 1.246zM70.613 110.584l0.088 0.698-6.461 1.247zM70.432 109.094l0.087 0.699-6.46 1.247zM70.238 107.598l0.097 0.696-6.46 1.247zM70.979 113.572l0.078 0.701-6.451 1.244z" fill="#fe633d" data-fill-palette-color="accent"></path><path d="M89.757 107.835l-1.802 1.059-2.918-1.829-0.052 0.03 1.081 2.909-2.236 1.314-2.914-7.753 1.811-1.065 2.921 1.816 0.087-0.051-1.093-2.89 2.218-1.304zM83.124 110.871l0.239 0.664-5.983 2.713zM82.067 108.041l0.248 0.659-5.992 2.718zM81.544 106.635l0.247 0.659-5.992 2.718zM81.02 105.229l0.248 0.659-5.992 2.718zM80.483 103.82l0.256 0.653-5.992 2.718zM82.596 109.456l0.238 0.664-5.983 2.713z" fill="#fe633d" data-fill-palette-color="accent"></path><path d="M95.375 92.692l1.31 1.949-1.2 1.159 3.335 4.912-1.952 1.886-3.334-4.912-1.229 1.187-1.31-1.948zM96.106 102.3l0.395 0.583-5.187 4.048zM94.414 99.798l0.395 0.582-5.179 4.041zM93.583 98.547l0.388 0.589-5.18 4.041zM91.487 98.518l0.395 0.582-5.187 4.048zM90.634 97.274l0.402 0.575-5.187 4.048zM95.26 101.049l0.395 0.583-5.187 4.047z" fill="#fe633d" data-fill-palette-color="accent"></path><path d="M100.153 85.943v0c0.614-0.928 1.229-1.469 1.845-1.623 0.615-0.164 1.299 0.004 2.054 0.503v0c0.369 0.244 0.784 0.587 1.246 1.029v0c1.094 1.029 1.745 2.002 1.951 2.918 0.206 0.915-0.074 1.952-0.84 3.108v0c-0.599 0.905-1.204 1.437-1.814 1.595-0.613 0.149-1.291-0.022-2.034-0.514v0c-0.386-0.255-0.81-0.604-1.272-1.046v0c-1.091-1.035-1.743-2.005-1.956-2.909-0.208-0.901 0.066-1.921 0.82-3.061zM104.201 90.971l0.505-0.762c0.163-0.246 0.254-0.451 0.274-0.615 0.029-0.165-0.047-0.336-0.228-0.512v0l-2.363-2.274-0.521 0.787c-0.159 0.24-0.252 0.448-0.28 0.623-0.024 0.169 0.053 0.332 0.23 0.49v0zM97.889 97.689l3.399-5.138c0.242 0.217 0.409 0.359 0.501 0.427v0zM96.812 96.639l3.405-5.146 0.459 0.472zM99.168 98.451l3.305-4.995c0.134 0.089 0.326 0.187 0.576 0.296v0zM95.918 95.313l3.361-5.08c0.151 0.245 0.274 0.43 0.367 0.556v0zM101.146 98.157l2.751-4.157c0.273 0.036 0.506 0.03 0.7-0.019v0zM95.82 92.765l2.961-4.476c-0.014 0.288 0.012 0.558 0.079 0.811v0z" fill="#fe633d" data-fill-palette-color="accent"></path><path d="M104.494 77.93l1.267-3.709c0.485-1.42 1.371-1.911 2.658-1.471v0c0.583 0.199 1.149 0.523 1.697 0.972 0.548 0.449 0.883 1.002 1.005 1.66v0l2.85 0.049-0.932 2.73-2.433-0.215-0.12 0.352 2.112 1.157-0.838 2.454zM108.581 75.885l-0.475-0.258c-0.013-0.004-0.061-0.028-0.146-0.071v0c-0.165-0.056-0.336 0.176-0.513 0.696v0l-0.108 0.313 1.26 0.696 0.159-0.466c0.154-0.45 0.094-0.754-0.177-0.91zM110.932 82.03l0.614 0.347-2.767 5.959zM108.286 80.574l0.617 0.338-2.77 5.968zM106.972 79.849l0.618 0.338-2.771 5.968zM105.659 79.124l0.617 0.339-2.771 5.967zM104.332 78.406l0.621 0.329-2.771 5.967zM109.609 81.302l0.614 0.347-2.767 5.959z" fill="#fe633d" data-fill-palette-color="accent"></path><path d="M0.727 59.144c0-2.033 1.648-3.682 3.682-3.682 2.033 0 3.682 1.648 3.682 3.682 0 2.033-1.648 3.682-3.682 3.682-2.033 0-3.682-1.648-3.682-3.682z" fill="#fe633d" data-fill-palette-color="accent"></path><path d="M108.926 59.144c0-2.033 1.648-3.682 3.681-3.682 2.033 0 3.682 1.648 3.682 3.682 0 2.033-1.648 3.682-3.682 3.682-2.033 0-3.682-1.648-3.681-3.682z" fill="#fe633d" data-fill-palette-color="accent"></path></g></svg></g></svg></g></svg></g><defs></defs></svg><rect width="395.52" height="87.05811001967335" fill="none" stroke="none" visibility="hidden"></rect></g></svg></g></svg>